#N canvas 519 84 441 356 10;
#X obj 20 15 udpreceive 57000;
#X obj 20 36 unpackOSC;
#X floatatom 20 99 5 0 0 0 - - -;
#X floatatom 56 99 5 0 0 0 - - -;
#X obj 20 57 routeOSC /key;
#X obj 20 78 unpack f f f;
#X floatatom 89 119 5 0 0 0 - - -;
#X connect 0 0 1 0;
#X connect 1 0 4 0;
#X connect 4 0 5 0;
#X connect 5 0 2 0;
#X connect 5 1 3 0;
#X connect 5 2 6 0;
